<svg width="549" height="84" viewBox="0 0 549 84" fill="none" xmlns="http://www.w3.org/2000/svg">
<path d="M42.3384 0C14.7097 0 0.736084 19.2176 0.736084 41.9439C0.736084 64.6701 14.7097 83.8877 42.3384 83.8877C69.967 83.8877 83.9407 64.6701 83.9407 41.9439C83.9407 19.2176 69.967 0 42.3384 0ZM42.3384 67.6046C26.4527 67.6046 18.4063 55.0055 18.4063 41.9439C18.4063 28.8823 26.4368 16.2671 42.3384 16.2671C58.24 16.2671 66.2705 28.8663 66.2705 41.9439C66.2705 55.0214 58.24 67.6046 42.3384 67.6046Z" fill="#E7E1D9"/>
<path d="M418.639 0C391.011 0 377.037 19.2176 377.037 41.9439C377.037 64.6701 391.011 83.8877 418.639 83.8877C446.268 83.8877 460.241 64.6701 460.241 41.9439C460.241 19.2176 446.268 0 418.639 0ZM418.639 67.6046C402.753 67.6046 394.707 55.0055 394.707 41.9439C394.707 28.8823 402.738 16.2671 418.639 16.2671C434.541 16.2671 442.571 28.8663 442.571 41.9439C442.571 55.0214 434.541 67.6046 418.639 67.6046Z" fill="#E7E1D9"/>
<path d="M145.476 67.6046C129.59 67.6046 118.867 55.0055 118.867 41.9439C118.867 28.8823 126.897 16.2671 142.799 16.2671C153.06 16.2671 160.995 21.3707 165.09 27.9094L166.779 26.6495V6.55471C160.804 3.23747 151.499 0 142.799 0C115.17 0 101.197 19.2176 101.197 41.9439C101.197 64.6701 117.831 83.8877 145.46 83.8877C154.144 83.8877 164.022 81.033 169.726 77.5722V56.8395L168.085 55.6115C164.134 61.8633 155.084 67.6205 145.46 67.6205L145.476 67.6046Z" fill="#E7E1D9"/>
<path d="M325.253 0C312.554 0 303.01 0.797412 293.721 0.797412H291.06C291.06 0.797412 291.315 10.9405 291.315 41.9279C291.315 72.9154 291.06 83.0584 291.06 83.0584H308.73C308.73 83.0584 308.603 78.1623 308.523 64.8455C311.646 65.2123 315.9 65.5153 321.334 65.5153C345.186 65.5153 359.972 54.2878 359.972 32.2792C359.972 14.2418 347.799 0 325.269 0H325.253ZM321.923 49.7744C316.872 49.7744 312.076 49.4077 308.459 49.0249C308.459 46.7921 308.459 44.4478 308.459 41.9439C308.459 31.1788 308.491 22.9335 308.539 16.7615C311.216 16.1236 315.04 15.5176 319.979 15.5176C338.016 15.5176 342.828 22.0564 342.828 32.646C342.828 41.5132 337.124 49.7904 321.939 49.7904L321.923 49.7744Z" fill="#E7E1D9"/>
<path d="M514.017 0C501.318 0 491.774 0.797412 482.485 0.797412H479.824C479.824 0.797412 480.079 10.9405 480.079 41.9279C480.079 72.9154 479.824 83.0584 479.824 83.0584H497.494C497.494 83.0584 497.366 78.1623 497.287 64.8455C500.41 65.2123 504.664 65.5153 510.097 65.5153C533.95 65.5153 548.736 54.2878 548.736 32.2792C548.736 14.2418 536.563 0 514.033 0H514.017ZM510.687 49.7744C505.636 49.7744 500.84 49.4077 497.223 49.0249C497.223 46.7921 497.223 44.4478 497.223 41.9439C497.223 31.1788 497.255 22.9335 497.303 16.7615C499.98 16.1236 503.804 15.5176 508.743 15.5176C526.78 15.5176 531.592 22.0564 531.592 32.646C531.592 41.5132 525.887 49.7904 510.703 49.7904L510.687 49.7744Z" fill="#E7E1D9"/>
<path d="M266.076 0.796875H248.406C248.406 0.796875 248.661 10.9399 248.661 41.9274C248.661 58.4498 242.526 67.604 228.871 67.604C215.216 67.604 209.082 58.4498 209.082 41.9274C209.082 10.9399 209.337 0.796875 209.337 0.796875H191.667C191.667 0.796875 191.794 10.9399 191.794 41.9274C191.794 64.6536 201.227 83.8713 228.855 83.8713C256.484 83.8713 265.916 64.6536 265.916 41.9274C265.916 10.9399 266.044 0.796875 266.044 0.796875H266.076Z" fill="#E7E1D9"/>
</svg>
